<svg xmlns="http://www.w3.org/2000/svg" viewBox="0 0 900 600">
  <path fill="#007a3d" d="M0 0h900v200H0z"/>
  <path fill="#fff" d="M0 200h900v200H0z"/>
  <path fill="#000" d="M0 400h900v200H0z"/>
  <g fill="#ce1126">
    <!-- Left Star -->
    <polygon points="225,225 244,284 306,284 256,320 275,379 225,343 175,379 194,320 144,284 206,284" />
    <!-- Middle Star -->
    <polygon points="450,225 469,284 531,284 481,320 500,379 450,343 400,379 419,320 369,284 431,284" />
    <!-- Right Star -->
    <polygon points="675,225 694,284 756,284 706,320 725,379 675,343 625,379 644,320 594,284 656,284" />
  </g>
</svg>
