<svg width="24" height="24" viewBox="0 0 24 24" fill="none" xmlns="http://www.w3.org/2000/svg">
<path opacity="0.5" d="M10.0007 20H14.0007C17.7719 20 19.6575 20 20.8291 18.8284C22.0007 17.6569 22.0007 15.7712 22.0007 12C22.0007 11.5581 21.999 10.392 21.9971 10H2.00091C1.99902 10.392 2.00067 11.5581 2.00067 12C2.00067 15.7712 2.00067 17.6569 3.17224 18.8284C4.34382 20 6.22943 20 10.0007 20Z" fill="#2B580E"/>
<path d="M9.99484 4H14.0052C17.7861 4 19.6766 4 20.8512 5.11578C21.6969 5.91916 21.9337 7.07507 22 9V10H2V9C2.0663 7.07507 2.3031 5.91916 3.14881 5.11578C4.3234 4 6.21388 4 9.99484 4Z" fill="#2B580E"/>
<path d="M12.5 15.25C12.0858 15.25 11.75 15.5858 11.75 16C11.75 16.4142 12.0858 16.75 12.5 16.75H14C14.4142 16.75 14.75 16.4142 14.75 16C14.75 15.5858 14.4142 15.25 14 15.25H12.5Z" fill="#2B580E"/>
<path d="M6 15.25C5.58579 15.25 5.25 15.5858 5.25 16C5.25 16.4142 5.58579 16.75 6 16.75H10C10.4142 16.75 10.75 16.4142 10.75 16C10.75 15.5858 10.4142 15.25 10 15.25H6Z" fill="#2B580E"/>
</svg>
