<svg width="24" height="24" viewBox="0 0 24 24" fill="none" xmlns="http://www.w3.org/2000/svg">
<path opacity="0.5" d="M11.9987 16C6.23874 16 5.21836 10.2595 5.0376 5.70647C4.98732 4.43998 4.96218 3.80673 5.4379 3.22083C5.91361 2.63494 6.48298 2.53887 7.62171 2.34674C8.74577 2.15709 10.2151 2 11.9987 2C13.7822 2 15.2516 2.15709 16.3756 2.34674C17.5144 2.53887 18.0837 2.63494 18.5594 3.22083C19.0352 3.80673 19.01 4.43998 18.9597 5.70647C18.779 10.2595 17.7586 16 11.9987 16Z" fill="#2B580E"/>
<path d="M17.6406 12.422L20.4571 10.8572C21.2095 10.4392 21.5857 10.2302 21.7929 9.87809C22.0001 9.52598 22.0001 9.09561 22.0001 8.23487V8.16234C22.0002 7.11873 22.0002 6.59692 21.717 6.20408C21.4339 5.81124 20.9389 5.64623 19.9488 5.31621L19.0002 5L18.9833 5.08464C18.9786 5.27391 18.9704 5.48006 18.9614 5.70645C18.8731 7.93085 18.5844 10.4387 17.6406 12.422Z" fill="#2B580E"/>
<path d="M5.03907 5.70647C5.12739 7.93096 5.41612 10.4389 6.36008 12.4223L3.54305 10.8572C2.79063 10.4392 2.41442 10.2302 2.20723 9.87809C2.00004 9.52598 2.00003 9.09561 2 8.23487V8.16234C1.99997 7.11874 1.99996 6.59692 2.2831 6.20408C2.56624 5.81124 3.06126 5.64623 4.05132 5.31621L4.99994 5L5.01728 5.08671C5.02196 5.27541 5.03011 5.4809 5.03907 5.70647Z" fill="#2B580E"/>
<path fill-rule="evenodd" clip-rule="evenodd" d="M5.25 22C5.25 21.5858 5.58579 21.25 6 21.25H18C18.4142 21.25 18.75 21.5858 18.75 22C18.75 22.4142 18.4142 22.75 18 22.75H6C5.58579 22.75 5.25 22.4142 5.25 22Z" fill="#2B580E"/>
<path opacity="0.5" d="M15.4582 21.25H8.54297L8.83979 19.5002C8.93327 19.0327 9.34369 18.6963 9.82037 18.6963H14.1808C14.6575 18.6963 15.0679 19.0327 15.1614 19.5002L15.4582 21.25Z" fill="#2B580E"/>
<path d="M12.0002 16.0002C11.7406 16.0002 11.4907 15.9885 11.25 15.9658V18.6963H12.75V15.9658C12.5094 15.9885 12.2596 16.0002 12.0002 16.0002Z" fill="#2B580E"/>
</svg>
