<svg width="24" height="24" viewBox="0 0 24 24" fill="none" xmlns="http://www.w3.org/2000/svg">
<path opacity="0.5" d="M12 22C17.5228 22 22 17.5228 22 12C22 6.47715 17.5228 2 12 2C6.47715 2 2 6.47715 2 12C2 17.5228 6.47715 22 12 22Z" fill="#2B580E"/>
<path d="M8.57613 9.44737C8.38887 7.36316 6.78157 5.42105 6.00132 4.71053L5.57031 4.34189C7.30889 2.88037 9.5523 2 12.0014 2C14.2147 2 16.2602 2.7191 17.9168 3.93642C18.1508 4.64695 17.705 6.13158 17.2369 6.84211C17.0673 7.09947 16.6828 7.41898 16.2612 7.72186C15.3107 8.40477 14.1112 8.74254 13.5014 10C13.327 10.3595 13.3345 10.7108 13.4183 11.0163C13.4786 11.2358 13.5171 11.4745 13.5177 11.708C13.5197 12.4629 12.7562 13.0082 12.0014 13C10.0371 12.9786 8.75117 11.3955 8.57613 9.44737Z" fill="#2B580E"/>
<path d="M13.4365 18.2761C14.4246 16.414 17.7182 16.414 17.7182 16.414C21.1502 16.3782 21.6138 14.2944 21.9237 13.2412C21.369 17.7226 17.8494 21.2849 13.3885 21.9046C13.0659 21.2256 12.6837 19.6946 13.4365 18.2761Z" fill="#2B580E"/>
</svg>
