<svg width="24" height="24" viewBox="0 0 24 24" fill="none" xmlns="http://www.w3.org/2000/svg">
<path fill-rule="evenodd" clip-rule="evenodd" d="M2.02734 11.25C2.41087 6.07745 6.72908 2 11.9996 2C11.1688 2 10.429 2.36421 9.82044 2.92113C9.21492 3.47525 8.70322 4.24878 8.28934 5.16315C7.87303 6.08292 7.54964 7.15868 7.33077 8.32611C7.15531 9.26194 7.04854 10.2485 7.01295 11.25H2.02734ZM2.02734 12.75H7.01295C7.04854 13.7515 7.15531 14.7381 7.33077 15.6739C7.54964 16.8413 7.87302 17.9171 8.28934 18.8368C8.70322 19.7512 9.21492 20.5247 9.82044 21.0789C10.429 21.6358 11.1688 22 11.9996 22C6.72908 22 2.41087 17.9226 2.02734 12.75Z" fill="#2B580E"/>
<path d="M12 2C12.8309 2 13.5707 2.36421 14.1792 2.92113C14.7848 3.47525 15.2965 4.24878 15.7103 5.16315C16.1266 6.08292 16.45 7.15868 16.6689 8.32612C16.8444 9.26194 16.9511 10.2485 16.9867 11.25H21.9723C21.5888 6.07745 17.2706 2 12 2Z" fill="#2B580E"/>
<path d="M16.6689 15.6739C16.45 16.8413 16.1266 17.9171 15.7103 18.8368C15.2965 19.7512 14.7848 20.5247 14.1792 21.0789C13.5707 21.6358 12.8309 22 12 22C17.2706 22 21.5888 17.9226 21.9723 12.75H16.9867C16.9511 13.7515 16.8444 14.7381 16.6689 15.6739Z" fill="#2B580E"/>
<g opacity="0.5">
<path d="M12.0007 3.39551C11.7257 3.39551 11.3704 3.51252 10.9573 3.89058C10.5411 4.27142 10.1245 4.86831 9.75639 5.68153C9.39074 6.48936 9.09383 7.46456 8.88951 8.55435C8.7286 9.41258 8.62878 10.3223 8.59375 11.2502H15.4076C15.3726 10.3223 15.2728 9.41258 15.1118 8.55435C14.9075 7.46457 14.6106 6.48937 14.245 5.68153C13.8769 4.86831 13.4602 4.27142 13.0441 3.89058C12.631 3.51252 12.2757 3.39551 12.0007 3.39551Z" fill="#2B580E"/>
<path d="M8.88951 15.446C9.09383 16.5358 9.39074 17.511 9.75639 18.3188C10.1245 19.132 10.5411 19.7289 10.9573 20.1097C11.3704 20.4878 11.7257 20.6048 12.0007 20.6048C12.2757 20.6048 12.631 20.4878 13.0441 20.1097C13.4602 19.7289 13.8769 19.132 14.245 18.3188C14.6106 17.511 14.9075 16.5358 15.1118 15.446C15.2728 14.5877 15.3726 13.678 15.4076 12.7502H8.59375C8.62878 13.678 8.7286 14.5877 8.88951 15.446Z" fill="#2B580E"/>
</g>
</svg>
