<svg width="24" height="24" viewBox="0 0 24 24" fill="none" xmlns="http://www.w3.org/2000/svg">
<g opacity="0.5">
<path d="M10.5531 13.447C10.1294 13.0233 9.60212 12.8506 9.01812 12.7721C8.46484 12.6977 7.76789 12.6977 6.93209 12.6978H5.82717C5.24648 12.6978 4.76184 12.6977 4.36823 12.7352C3.95674 12.7743 3.57325 12.8592 3.22152 13.0747C2.87731 13.2857 2.5879 13.5751 2.37697 13.9193C2.16142 14.271 2.07653 14.6545 2.0374 15.066C1.99998 15.4596 1.99999 15.9443 2 16.525V16.5933C1.99999 17.4771 1.99999 18.1898 2.05454 18.7636C2.1108 19.3553 2.22996 19.8708 2.51405 20.3344C2.80168 20.8038 3.19632 21.1984 3.6657 21.4861C4.12929 21.7701 4.64482 21.8893 5.23653 21.9456C5.8103 22.0001 6.52304 22.0001 7.40683 22.0001H7.47507C8.05577 22.0001 8.54048 22.0001 8.9341 21.9627C9.34559 21.9236 9.72907 21.8387 10.0808 21.6231C10.425 21.4122 10.7144 21.1228 10.9254 20.7786C11.1409 20.4268 11.2258 20.0434 11.2649 19.6319C11.3024 19.2383 11.3023 18.7536 11.3023 18.1729V17.068C11.3024 16.2322 11.3024 15.5353 11.228 14.982C11.1495 14.398 10.9768 13.8707 10.5531 13.447Z" fill="#2B580E"/>
<path d="M8.9341 2.0374C9.34559 2.07653 9.72907 2.16142 10.0808 2.37697C10.425 2.5879 10.7144 2.87731 10.9254 3.22152C11.1409 3.57325 11.2258 3.95674 11.2649 4.36823C11.3024 4.76183 11.3023 5.24658 11.3023 5.82726V6.93212C11.3024 7.7679 11.3024 8.46484 11.228 9.01812C11.1495 9.60212 10.9768 10.1294 10.5531 10.5531C10.1294 10.9768 9.60212 11.1495 9.01812 11.228C8.46484 11.3024 7.76787 11.3024 6.93209 11.3023H5.82711C5.24643 11.3023 4.76183 11.3024 4.36823 11.2649C3.95674 11.2258 3.57325 11.1409 3.22152 10.9254C2.87731 10.7144 2.5879 10.425 2.37697 10.0808C2.16142 9.72907 2.07653 9.34559 2.0374 8.9341C1.99998 8.54047 1.99999 8.05579 2 7.47506V7.40679C1.99999 6.52302 1.99999 5.81029 2.05454 5.23653C2.1108 4.64482 2.22996 4.12929 2.51405 3.6657C2.80168 3.19632 3.19632 2.80168 3.6657 2.51405C4.12929 2.22996 4.64482 2.1108 5.23653 2.05454C5.81029 1.99999 6.52307 1.99999 7.40684 2H7.4751C8.05583 1.99999 8.54047 1.99998 8.9341 2.0374Z" fill="#2B580E"/>
<path d="M16.5947 2H16.5264C15.9457 1.99999 15.461 1.99998 15.0674 2.0374C14.6559 2.07653 14.2724 2.16142 13.9207 2.37697C13.5765 2.5879 13.2871 2.87731 13.0761 3.22152C12.8606 3.57325 12.7757 3.95674 12.7366 4.36823C12.6991 4.76185 12.6992 5.24654 12.6992 5.82725V6.93209C12.6991 7.76789 12.6991 8.46484 12.7735 9.01812C12.852 9.60212 13.0247 10.1294 13.4484 10.5531C13.8721 10.9768 14.3994 11.1495 14.9834 11.228C15.5367 11.3024 16.2336 11.3024 17.0694 11.3023H18.1743C18.755 11.3023 19.2397 11.3024 19.6333 11.2649C20.0448 11.2258 20.4282 11.1409 20.78 10.9254C21.1242 10.7144 21.4136 10.425 21.6245 10.0808C21.8401 9.72907 21.925 9.34559 21.9641 8.9341C22.0015 8.54048 22.0015 8.05587 22.0015 7.47517V7.40683C22.0015 6.52304 22.0015 5.8103 21.947 5.23653C21.8907 4.64482 21.7715 4.12929 21.4875 3.6657C21.1998 3.19632 20.8052 2.80168 20.3358 2.51405C19.8722 2.22996 19.3567 2.1108 18.765 2.05454C18.1912 1.99999 17.4785 1.99999 16.5947 2Z" fill="#2B580E"/>
</g>
<path opacity="0.4" d="M14.0945 21.3024C14.0945 21.6877 13.7822 22.0001 13.3968 22.0001C13.0115 22.0001 12.6992 21.6877 12.6992 21.3024V18.5117H14.0945V21.3024Z" fill="#2B580E"/>
<path opacity="0.5" d="M21.3032 12.6978C20.9179 12.6978 20.6055 13.0101 20.6055 13.3954V16.6512H22.0008V13.3954C22.0008 13.0101 21.6885 12.6978 21.3032 12.6978Z" fill="#2B580E"/>
<path d="M16.0761 16.6173C16 16.8011 16 17.0341 16 17.5C16 17.9659 16 18.1989 16.0761 18.3827C16.1776 18.6277 16.3723 18.8224 16.6173 18.9239C16.8011 19 17.0341 19 17.5 19C17.9659 19 18.1989 19 18.3827 18.9239C18.6277 18.8224 18.8224 18.6277 18.9239 18.3827C19 18.1989 19 17.9659 19 17.5C19 17.0341 19 16.8011 18.9239 16.6173C18.8224 16.3723 18.6277 16.1776 18.3827 16.0761C18.1989 16 17.9659 16 17.5 16C17.0341 16 16.8011 16 16.6173 16.0761C16.3723 16.1776 16.1776 16.3723 16.0761 16.6173Z" fill="#2B580E"/>
<path opacity="0.7" d="M22.0011 18.5352V18.5117H20.6058C20.6058 18.9547 20.6054 19.252 20.5897 19.4822C20.5744 19.7061 20.547 19.8152 20.5173 19.8869C20.3993 20.1718 20.1729 20.3982 19.888 20.5162C19.8162 20.546 19.7072 20.5734 19.4832 20.5887C19.253 20.6044 18.9557 20.6047 18.5128 20.6047H16.6523V22.0001H18.5363C18.9497 22.0001 19.2949 22.0001 19.5782 21.9808C19.8732 21.9606 20.1518 21.9173 20.4219 21.8054C21.0488 21.5457 21.5468 21.0477 21.8064 20.4209C21.9183 20.1508 21.9617 19.8722 21.9818 19.5772C22.0011 19.2938 22.0011 18.9487 22.0011 18.5352Z" fill="#2B580E"/>
<path opacity="0.6" d="M12.6992 16.6156V16.6512H14.0945C14.0945 15.9835 14.0954 15.5352 14.1301 15.1934C14.1637 14.8633 14.2231 14.7108 14.2905 14.6099C14.3753 14.4829 14.4843 14.3739 14.6113 14.2891C14.7122 14.2217 14.8647 14.1623 15.1948 14.1287C15.5366 14.0939 15.9849 14.0931 16.6527 14.0931H18.5131V12.6978H16.617C15.9941 12.6977 15.4744 12.6977 15.0536 12.7405C14.6132 12.7853 14.2044 12.8827 13.8361 13.1289C13.5568 13.3155 13.3169 13.5553 13.1303 13.8347C12.8842 14.203 12.7867 14.6118 12.7419 15.0522C12.6991 15.473 12.6992 15.9927 12.6992 16.6156Z" fill="#2B580E"/>
<path d="M5.51016 18.6903C5.72851 18.8452 6.03776 18.8452 6.65625 18.8452C7.27473 18.8452 7.58398 18.8452 7.80233 18.6903C7.87938 18.6356 7.94665 18.5683 8.00132 18.4913C8.15625 18.2729 8.15625 17.9637 8.15625 17.3452C8.15625 16.7267 8.15625 16.4175 8.00132 16.1991C7.94665 16.1221 7.87938 16.0548 7.80233 16.0001C7.58398 15.8452 7.27471 15.8452 6.65623 15.8452C6.03775 15.8452 5.72851 15.8452 5.51016 16.0001C5.43312 16.0548 5.36584 16.1221 5.31118 16.1991C5.15625 16.4175 5.15625 16.7267 5.15625 17.3452C5.15625 17.9637 5.15625 18.2729 5.31118 18.4913C5.36584 18.5683 5.43312 18.6356 5.51016 18.6903Z" fill="#2B580E"/>
<path d="M6.65625 8.15479C6.03776 8.15479 5.72851 8.15479 5.51016 7.99986C5.43312 7.94519 5.36584 7.87792 5.31118 7.80087C5.15625 7.58252 5.15625 7.27327 5.15625 6.65479C5.15625 6.0363 5.15625 5.72705 5.31118 5.5087C5.36584 5.43165 5.43312 5.36438 5.51016 5.30971C5.72851 5.15479 6.03776 5.15479 6.65625 5.15479C7.27473 5.15479 7.58398 5.15479 7.80233 5.30971C7.87938 5.36438 7.94665 5.43165 8.00132 5.5087C8.15625 5.72705 8.15625 6.0363 8.15625 6.65479C8.15625 7.27327 8.15625 7.58252 8.00132 7.80087C7.94665 7.87792 7.87938 7.94519 7.80233 7.99986C7.58398 8.15479 7.27473 8.15479 6.65625 8.15479Z" fill="#2B580E"/>
<path d="M16.1976 7.99998C16.416 8.15491 16.7252 8.15491 17.3437 8.15491C17.9622 8.15491 18.2715 8.15491 18.4899 7.99998C18.5669 7.94531 18.6341 7.87804 18.6888 7.80099C18.8437 7.58264 18.8437 7.2734 18.8437 6.65491C18.8437 6.03642 18.8437 5.72718 18.6888 5.50883C18.6341 5.43178 18.5669 5.36451 18.4899 5.30984C18.2715 5.15491 17.9622 5.15491 17.3437 5.15491C16.7252 5.15491 16.416 5.15491 16.1976 5.30984C16.1206 5.36451 16.0534 5.43178 15.9987 5.50883C15.8438 5.72718 15.8438 6.03645 15.8438 6.65492C15.8438 7.2734 15.8438 7.58264 15.9987 7.80099C16.0534 7.87804 16.1206 7.94531 16.1976 7.99998Z" fill="#2B580E"/>
</svg>
